<mxfile host="app.diagrams.net" modified="2024-05-29T03:58:05.851Z" agent="Mozilla/5.0 (Windows NT 10.0; Win64; x64) AppleWebKit/537.36 (KHTML, like Gecko) Chrome/125.0.0.0 Safari/537.36" version="24.4.8" etag="RqGhBXcQ6I60-Tsh4Zf9" type="github">
  <diagram name="第 1 页" id="s5_8UOIld0RrF4eV0XyC">
    <mxGraphModel>
      <root>
        <mxCell id="0" />
        <mxCell id="1" parent="0" />
      </root>
    </mxGraphModel>
  </diagram>
</mxfile>
